<svg width="149" height="208" viewBox="0 0 149 208" fill="none" xmlns="http://www.w3.org/2000/svg">
<rect width="148.8" height="207.19" fill="#FFCA98"/>
<g opacity="0.5">
<path d="M77.4 100.45V97.9C78.225 97.55 79.0688 97.2875 79.9313 97.1125C80.7938 96.9375 81.7 96.85 82.65 96.85C83.3 96.85 83.9375 96.9 84.5625 97C85.1875 97.1 85.8 97.225 86.4 97.375V99.775C85.8 99.55 85.1938 99.3812 84.5813 99.2687C83.9688 99.1562 83.325 99.1 82.65 99.1C81.7 99.1 80.7875 99.2187 79.9125 99.4562C79.0375 99.6937 78.2 100.025 77.4 100.45ZM77.4 108.7V106.15C78.225 105.8 79.0688 105.537 79.9313 105.362C80.7938 105.187 81.7 105.1 82.65 105.1C83.3 105.1 83.9375 105.15 84.5625 105.25C85.1875 105.35 85.8 105.475 86.4 105.625V108.025C85.8 107.8 85.1938 107.631 84.5813 107.519C83.9688 107.406 83.325 107.35 82.65 107.35C81.7 107.35 80.7875 107.462 79.9125 107.687C79.0375 107.912 78.2 108.25 77.4 108.7ZM77.4 104.575V102.025C78.225 101.675 79.0688 101.412 79.9313 101.237C80.7938 101.062 81.7 100.975 82.65 100.975C83.3 100.975 83.9375 101.025 84.5625 101.125C85.1875 101.225 85.8 101.35 86.4 101.5V103.9C85.8 103.675 85.1938 103.506 84.5813 103.394C83.9688 103.281 83.325 103.225 82.65 103.225C81.7 103.225 80.7875 103.344 79.9125 103.581C79.0375 103.819 78.2 104.15 77.4 104.575ZM66.15 109.6C67.325 109.6 68.4688 109.731 69.5813 109.994C70.6938 110.256 71.8 110.65 72.9 111.175V96.4C71.875 95.8 70.7875 95.35 69.6375 95.05C68.4875 94.75 67.325 94.6 66.15 94.6C65.25 94.6 64.3563 94.6875 63.4688 94.8625C62.5813 95.0375 61.725 95.3 60.9 95.65V110.5C61.775 110.2 62.6438 109.975 63.5063 109.825C64.3688 109.675 65.25 109.6 66.15 109.6ZM75.9 111.175C77 110.65 78.1063 110.256 79.2188 109.994C80.3313 109.731 81.475 109.6 82.65 109.6C83.55 109.6 84.4313 109.675 85.2938 109.825C86.1563 109.975 87.025 110.2 87.9 110.5V95.65C87.075 95.3 86.2188 95.0375 85.3313 94.8625C84.4438 94.6875 83.55 94.6 82.65 94.6C81.475 94.6 80.3125 94.75 79.1625 95.05C78.0125 95.35 76.925 95.8 75.9 96.4V111.175ZM74.4 115.6C73.2 114.65 71.9 113.912 70.5 113.387C69.1 112.862 67.65 112.6 66.15 112.6C65.1 112.6 64.0688 112.737 63.0563 113.012C62.0438 113.287 61.075 113.675 60.15 114.175C59.625 114.45 59.1188 114.437 58.6313 114.137C58.1438 113.837 57.9 113.4 57.9 112.825V94.75C57.9 94.475 57.9688 94.2125 58.1063 93.9625C58.2438 93.7125 58.45 93.525 58.725 93.4C59.875 92.8 61.075 92.35 62.325 92.05C63.575 91.75 64.85 91.6 66.15 91.6C67.6 91.6 69.0188 91.7875 70.4063 92.1625C71.7938 92.5375 73.125 93.1 74.4 93.85C75.675 93.1 77.0063 92.5375 78.3938 92.1625C79.7813 91.7875 81.2 91.6 82.65 91.6C83.95 91.6 85.225 91.75 86.475 92.05C87.725 92.35 88.925 92.8 90.075 93.4C90.35 93.525 90.5563 93.7125 90.6938 93.9625C90.8313 94.2125 90.9 94.475 90.9 94.75V112.825C90.9 113.4 90.6563 113.837 90.1688 114.137C89.6813 114.437 89.175 114.45 88.65 114.175C87.725 113.675 86.7563 113.287 85.7438 113.012C84.7313 112.737 83.7 112.6 82.65 112.6C81.15 112.6 79.7 112.862 78.3 113.387C76.9 113.912 75.6 114.65 74.4 115.6Z" fill="#7A532A"/>
</g>
</svg>
